<?xml version="1.0" encoding="utf-8"?>
<!-- Generator: Adobe Illustrator 17.0.0, SVG Export Plug-In . SVG Version: 6.00 Build 0)  -->
<!DOCTYPE svg PUBLIC "-//W3C//DTD SVG 1.1//EN" "http://www.w3.org/Graphics/SVG/1.1/DTD/svg11.dtd">
<svg version="1.1" id="Layer_1" xmlns="http://www.w3.org/2000/svg" xmlns:xlink="http://www.w3.org/1999/xlink" x="0px" y="0px"
	 width="10454.034px" height="1734.349px" viewBox="0 0 10454.034 1734.349" enable-background="new 0 0 10454.034 1734.349"
	 xml:space="preserve">
<path d="M5783.527,131.503L5740.84,27.586h-448.299v171.641c-9.108-14.57-18.814-28.6-29.313-41.855
	C5180.742,52.933,5066.723,0,4924.385,0c-142.996,0-257.362,53.077-339.945,157.767c-29.38,37.243-53.357,79.572-71.824,126.784
	V17.482h-208.5l-7.052,22.347c-8.28-3.926-16.798-7.545-25.513-10.787c-42.048-15.708-90.166-23.649-142.983-23.649
	c-107.642,0-193.775,32.7-256.339,96.942V27.586h-456.683v103.8l-42.628-103.8h-448.271v171.641
	c-9.108-14.57-18.787-28.6-29.283-41.855C2812.847,52.933,2698.848,0,2556.49,0c-143.023,0-257.4,53.097-339.926,157.767
	c-78.501,99.516-118.303,235.149-118.303,403.114c0,47.287,3.521,91.691,9.841,133.76h-42.27
	c-2.982-57.94-15.785-103.686-38.845-139.174c-3.397-5.239-7.015-10.276-10.894-15.099c11.481-10.392,21.96-21.796,31.388-34.206
	c36.549-48.099,55.085-107.911,55.085-177.749c0-97.752-28.329-173.512-84.216-225.152
	c-54.342-50.231-133.625-75.695-235.582-75.695h-523.994v263.207h100.694c0.087,2.664,0.107,5.596,0.107,8.772v521.31
	c0,3.193-0.04,6.118-0.107,8.809h-100.694v118.506c-9.147-16.577-19.027-32.565-30.356-47.443
	c-32.882-43.303-75.25-79.977-126.63-109.754c32.257-27.074,59.88-58.057,82.662-92.752
	c48.572-73.988,73.213-161.984,73.213-261.539c0-147.248-44.2-258.739-131.386-331.385C1041.763,34.929,918.058,0.723,748.134,0.723
	H0v345.56h135.228c14.319,0,24.082,0.887,30.489,1.854c1.776,10.554,3.755,29.505,3.755,61.461v876.375
	c0,32.151-2.055,51.004-3.879,61.386c-6.282,0.984-15.998,1.891-30.364,1.891H0v345.559h728.712
	c205.767,0,350.992-37.727,444.005-115.36c95.56-79.776,144.037-208.162,144.037-381.569c0-37.031-3.185-71.903-8.819-105.055
	h487.261v-45.89c30.548,36.203,84.02,73.486,174.583,73.486c100.184,0,153.696-50.724,180.885-93.149
	c17.889-27.787,30.771-61.732,39.069-102.064c8.404,13.121,17.33,25.772,26.873,37.842
	c82.524,104.419,196.881,157.352,339.886,157.352c142.676,0,256.771-52.836,339.134-157.014
	c10.372-13.141,19.992-27.017,29.022-41.422v170.88h460.719V945.246l60.688,147.598h330.374V299.545
	c0-3.203,0.047-6.128,0.124-8.772h6.003c-3.948,25.252-5.944,51.931-5.944,80.026c0,48.736,7.371,94.24,21.893,135.228
	c12.447,35.13,29.999,66.73,52.006,93.9h-62.378v505.036h202.131l12.293-29.989c13.257,6.715,27.188,12.852,41.748,18.332
	c47.744,18.006,97.521,27.114,147.973,27.114c107.411,0,194.915-34.812,260.004-103.522c36.917-38.97,62.979-85.68,78.707-139.172
	c15.235,30.807,32.959,59.377,53.512,85.322c82.564,104.419,196.92,157.352,339.886,157.352
	c142.589,0,256.705-52.816,339.21-157.051c10.363-13.103,19.935-26.94,28.946-41.308v170.803h460.708V945.209l60.728,147.635
	h330.468V299.545c0-3.203,0.04-6.128,0.117-8.772h95.638V27.586h-456.674V131.503z M636.392,346.283h13.123
	c54.948,0,94.181,10.276,113.303,29.621c19.423,19.684,29.68,59.06,29.68,113.857c0,58.711-11.26,101.291-32.565,123.194
	c-26.244,26.969-78.212,32.643-117.182,32.643h-6.359V346.283z M793.627,1310.559c-25.357,25.685-71.575,38.691-137.378,38.691
	h-19.857V984.432h18.158c66.692,0,113.325,13.238,138.625,39.365c25.511,26.293,38.99,77.114,38.99,146.969
	C832.164,1216.733,825.46,1278.311,793.627,1310.559 M1695.003,829.665c-0.059-2.691-0.097-5.616-0.097-8.809V671.639h13.121
	c8.809,0,15.158,0.549,19.549,1.186c1.66,8.829,3.551,24.855,3.551,51.968v87.976c0,5.713,0.057,11.339,0.202,16.895H1695.003z
	 M1753.184,400.962c-4.187,1.931-19.365,7.487-56.735,7.487h-1.543V290.773h9.649c35.506,0,45.744,7.487,45.821,7.487
	c0.174,0.223,9.351,12.41,9.351,56.397C1759.727,384.897,1754.941,397.402,1753.184,400.962 M2615.452,807.039
	c-18.613,41.315-40.185,44.779-58.962,44.779c-19.01,0-40.863-3.464-59.542-44.779c-14.957-33.182-32.777-102.816-32.777-246.158
	c0-143.361,17.82-213.015,32.757-246.16c18.699-41.353,40.553-44.817,59.562-44.817c18.777,0,40.349,3.464,58.982,44.799
	c15.004,33.2,32.844,102.836,32.844,246.178C2648.316,704.203,2630.476,773.837,2615.452,807.039 M3024.406,820.828
	c0,3.221-0.04,6.146-0.107,8.837h-54.438c29.032-77.122,43.892-166.855,43.892-268.784c0-102.461-14.965-192.666-44.21-270.108
	h54.757c0.067,2.664,0.107,5.569,0.107,8.772V820.828z M3282.692,829.665c-0.077-2.691-0.116-5.616-0.116-8.837V695.249
	l55.268,134.416H3282.692z M3518.314,381.714l-37.322-90.94h37.225c0.057,2.664,0.097,5.569,0.097,8.772V381.714z M4209.065,831.605
	c-8.529,7.622-23.31,11.501-43.882,11.501c-35.844,0-64.279-13.364-89.501-42.011c-19.403-22.077-33.886-50.376-43.331-84.522
	c23.282,8.519,50.212,17.589,80.924,27.355c7.43,2.45,18.255,5.788,31.793,9.841c22.047,6.831,73.33,25.424,73.33,50.308
	C4218.396,823.278,4212.097,828.894,4209.065,831.605 M4186.981,354.677c-72.193-20.33-83.809-40.371-84.022-40.371
	c0-18.707,5.77-24.266,8.134-26.552c2.373-2.259,9.504-9.118,32.488-9.118c37.727,0,65.822,11.307,88.431,35.498
	c15.476,16.615,27.094,38.276,34.755,64.694C4246.358,372.102,4220.258,364.22,4186.981,354.677 M4467.894,502.67
	c-1.603-1.881-3.02-3.841-4.68-5.673h5.018C4468.095,498.868,4467.991,500.769,4467.894,502.67 M4983.347,807.078
	c-18.573,41.276-40.167,44.74-58.962,44.74c-19.009,0-40.843-3.464-59.505-44.76c-14.955-33.202-32.795-102.876-32.795-246.178
	c0-143.304,17.84-212.996,32.757-246.16c18.7-41.353,40.533-44.817,59.542-44.817c18.767,0,40.389,3.464,59.001,44.817
	c14.965,33.105,32.807,102.682,32.807,246.16C5016.193,704.347,4998.371,773.896,4983.347,807.078 M5392.348,820.828
	c0,3.221-0.04,6.146-0.117,8.837h-54.437c29.022-77.141,43.882-166.874,43.882-268.784c0-102.48-14.957-192.666-44.21-270.108
	h54.765c0.077,2.644,0.117,5.569,0.117,8.772V820.828z M5650.51,829.665c-0.079-2.691-0.116-5.616-0.116-8.837V695.133
	l55.345,134.532H5650.51z M5886.152,290.773c0.077,2.664,0.115,5.569,0.115,8.772v82.169l-37.34-90.94H5886.152z"/>
<path d="M10254.112,1349.268c-4.4,0-5.75-0.848-8.009-2.932c-3.126-2.932-14.724-15.496-32.824-55.152L9917.971,650.46
	l163.738-191.662l1.332-0.869l6.213-7.092c87.553-99.835,121.729-104.419,122.636-104.534h126.861V0.733H8863.518v15.409h-127.769
	l-6.948,24.681c-8.586-4.766-17.251-9.09-26.013-12.967C8660.837,9.369,8615.662,0,8568.517,0
	c-64.299,0-122.75,13.277-173.657,39.464c-50.25,25.78-96.236,65.803-136.916,119.21c-34.755,46.121-61.538,97.953-80.836,153.858
	c-19.549-58.646-46.469-110.758-81.609-155.2C8012.904,52.933,7898.896,0,7756.635,0c-142.936,0-257.292,53.077-339.926,157.747
	c-78.501,99.479-118.312,235.11-118.312,403.134c0,47.269,3.531,91.691,9.843,133.74h-42.223
	c-2.992-57.853-15.804-103.587-38.904-139.192c-3.377-5.239-7.005-10.256-10.865-15.062c11.463-10.392,21.922-21.768,31.358-34.146
	c36.608-48.109,55.152-107.932,55.152-177.798c0-97.762-28.367-173.522-84.251-225.135
	c-54.284-50.249-133.578-75.723-235.624-75.723h-523.887v263.207h100.617c0.057,2.674,0.097,5.596,0.097,8.772v521.31
	c0,3.203-0.04,6.128-0.116,8.789h-100.598v263.18h536.374v-45.773c30.605,36.144,84.08,73.369,174.565,73.369
	c100.133,0,153.684-50.686,180.989-93.227c17.812-27.787,30.664-61.695,38.942-101.967c8.414,13.121,17.35,25.79,26.902,37.842
	c82.611,104.399,196.95,157.332,339.866,157.332c142.589,0,256.675-52.816,339.114-157.014
	c34.812-44.007,61.541-95.541,81.011-153.52c18.603,55.587,43.786,105.605,76.303,149.034
	c80.238,107.158,189.229,161.499,323.966,161.499c121.245,0,215.918-41.711,281.452-124.016
	c61.115-77.025,93.613-188.236,96.584-330.593l1.506-72.599h-249.265l-3.223,67.753c-3.05,64.068-15.573,113.131-37.168,145.794
	c-19.606,29.582-38.634,33.654-56.29,33.654c-13.22,0-40.719,0-67-52.46c-25.437-50.666-38.346-127.952-38.346-229.737
	c0-99.892,13.065-176.484,38.925-227.826c26.532-53.057,52.835-53.057,65.475-53.057c18.719,0,40.796,4.371,62.621,36.559
	c23.021,34.049,36.396,85.565,39.772,153.125l3.357,67.579h239.635V346.303h43.65c14.339,0,24.122,0.887,30.548,1.861
	c1.777,10.546,3.765,29.497,3.765,61.434v876.355c0,32.131-2.064,51.024-3.898,61.406c-6.292,0.984-16.036,1.909-30.414,1.909
	h-135.197v345.56h1511.475v-345.56H10254.112z M6895.158,829.645c-0.077-2.662-0.117-5.586-0.117-8.789V671.639h13.104
	c8.819,0,15.168,0.559,19.549,1.186c1.678,8.876,3.589,24.922,3.589,51.968v87.976c0,5.713,0.057,11.349,0.174,16.876H6895.158z
	 M6953.282,400.982c-4.13,1.919-19.298,7.468-56.638,7.468h-1.603V290.773h9.592c35.623,0,45.851,7.527,45.871,7.527
	c0.114,0.144,9.319,12.254,9.319,56.357C6959.822,385.014,6954.999,397.479,6953.282,400.982 M7815.646,807.059
	c-18.603,41.306-40.215,44.76-59.011,44.76c-19.027,0-40.873-3.454-59.513-44.799c-14.937-33.115-32.767-102.692-32.767-246.138
	c0-143.458,17.83-213.055,32.767-246.197c18.64-41.315,40.505-44.779,59.513-44.779c18.796,0,40.389,3.464,59.031,44.779
	c14.975,33.22,32.844,102.874,32.844,246.197C7848.51,704.183,7830.641,773.819,7815.646,807.059 M8417.052,266.565
	c-36.375,72.191-54.033,167.59-54.033,291.633c0,125.917,17.484,221.951,53.435,293.506c41.238,82.38,98.187,115.224,148.9,126.205
	c-83.096-2.885-148.09-37.091-198.398-104.294c-56.657-75.683-85.392-181.347-85.392-314.055c0-67.127,7.681-127.596,22.792-179.659
	c14.569-50.097,37.186-95.726,67.02-135.325c27.479-36.105,57.255-62.523,88.518-78.568c26.958-13.876,58.51-21.721,93.958-23.399
	C8506.65,155.99,8455.358,189.935,8417.052,266.565 M9607.937,1349.268h-79.756c-15.361,0-25.493-1.041-31.842-2.122
	c-1.872-10.092-4.071-28.811-4.071-61.193v-142.646l93.245-106.589l140.736,312.549H9607.937z M9492.268,627.081V409.598
	c0-32.372,2.199-51.081,4.054-61.163c6.366-1.081,16.498-2.132,31.859-2.132h206.405L9492.268,627.081z"/>
<path d="M5862.569,171.024l-42.687-103.917h-448.299v171.641c-9.107-14.569-18.814-28.6-29.312-41.855
	c-82.497-104.439-196.505-157.371-338.843-157.371c-142.996,0-257.362,53.077-339.945,157.767
	c-29.38,37.243-53.358,79.572-71.824,126.784V57.003h-208.5l-7.052,22.347c-8.28-3.926-16.799-7.545-25.513-10.787
	c-42.048-15.708-90.166-23.649-142.984-23.649c-107.642,0-193.774,32.7-256.338,96.942V67.107h-456.683v103.8l-42.628-103.8
	h-448.271v171.641c-9.108-14.569-18.787-28.6-29.283-41.855C2891.889,92.454,2777.89,39.521,2635.533,39.521
	c-143.023,0-257.4,53.097-339.926,157.767c-78.501,99.516-118.303,235.149-118.303,403.114c0,47.287,3.521,91.691,9.841,133.76
	h-42.27c-2.982-57.94-15.785-103.686-38.845-139.174c-3.397-5.239-7.015-10.276-10.894-15.099
	c11.481-10.392,21.96-21.796,31.388-34.206c36.549-48.099,55.085-107.911,55.085-177.749c0-97.752-28.329-173.512-84.216-225.152
	c-54.342-50.231-133.625-75.695-235.582-75.695h-523.994v263.207h100.694c0.087,2.664,0.107,5.596,0.107,8.772v521.31
	c0,3.193-0.039,6.118-0.107,8.809h-100.694v118.506c-9.147-16.577-19.027-32.565-30.356-47.443
	c-32.882-43.303-75.25-79.977-126.63-109.754c32.257-27.074,59.88-58.057,82.663-92.752
	c48.572-73.988,73.213-161.984,73.213-261.539c0-147.248-44.201-258.739-131.386-331.385
	C1120.806,74.45,997.1,40.244,827.177,40.244H79.042v345.56H214.27c14.319,0,24.082,0.887,30.489,1.854
	c1.776,10.554,3.755,29.505,3.755,61.461v876.375c0,32.15-2.055,51.004-3.879,61.386c-6.282,0.984-15.998,1.891-30.364,1.891H79.042
	v345.56h728.712c205.767,0,350.992-37.727,444.005-115.36c95.56-79.776,144.037-208.162,144.037-381.569
	c0-37.031-3.185-71.903-8.819-105.055h487.261v-45.89c30.548,36.203,84.02,73.486,174.583,73.486
	c100.184,0,153.696-50.714,180.885-93.15c17.889-27.787,30.771-61.732,39.069-102.063c8.404,13.121,17.33,25.772,26.873,37.842
	c82.524,104.419,196.881,157.352,339.886,157.352c142.676,0,256.771-52.836,339.133-157.014
	c10.373-13.141,19.992-27.017,29.023-41.422v170.88h460.718V984.768l60.689,147.598h330.374V339.066
	c0-3.203,0.047-6.128,0.124-8.772h6.003c-3.948,25.252-5.944,51.931-5.944,80.026c0,48.736,7.371,94.24,21.893,135.228
	c12.447,35.13,29.999,66.73,52.006,93.9h-62.378v505.036h202.131l12.293-29.989c13.258,6.715,27.188,12.852,41.749,18.332
	c47.743,18.006,97.521,27.114,147.973,27.114c107.411,0,194.915-34.812,260.004-103.522c36.917-38.97,62.979-85.68,78.707-139.172
	c15.235,30.807,32.959,59.377,53.512,85.322c82.564,104.419,196.92,157.352,339.886,157.352
	c142.589,0,256.714-52.816,339.21-157.051c10.363-13.103,19.935-26.94,28.945-41.308v170.803h460.708V984.73l60.729,147.635h330.468
	V339.066c0-3.203,0.04-6.128,0.117-8.772h95.637V67.107h-456.673V171.024z M715.435,385.804h13.123
	c54.948,0,94.181,10.276,113.303,29.621c19.423,19.684,29.68,59.06,29.68,113.857c0,58.711-11.26,101.291-32.565,123.194
	c-26.244,26.969-78.212,32.643-117.182,32.643h-6.359V385.804z M872.67,1350.08c-25.357,25.685-71.575,38.691-137.378,38.691
	h-19.857v-364.818h18.158c66.692,0,113.325,13.238,138.625,39.365c25.511,26.303,38.99,77.114,38.99,146.969
	C911.207,1256.255,904.502,1317.833,872.67,1350.08 M1774.046,869.186c-0.059-2.691-0.097-5.616-0.097-8.809V711.16h13.121
	c8.809,0,15.158,0.549,19.549,1.186c1.66,8.829,3.551,24.855,3.551,51.968v87.976c0,5.713,0.057,11.339,0.202,16.895H1774.046z
	 M1832.227,440.484c-4.187,1.931-19.365,7.487-56.735,7.487h-1.543V330.294h9.649c35.506,0,45.744,7.487,45.821,7.487
	c0.174,0.223,9.351,12.41,9.351,56.397C1838.769,424.418,1833.983,436.923,1832.227,440.484 M2694.494,846.56
	c-18.613,41.315-40.185,44.779-58.962,44.779c-19.01,0-40.863-3.464-59.542-44.779c-14.957-33.182-32.777-102.816-32.777-246.158
	c0-143.361,17.82-213.015,32.757-246.16c18.699-41.353,40.552-44.817,59.562-44.817c18.777,0,40.349,3.464,58.981,44.799
	c15.004,33.2,32.844,102.836,32.844,246.178C2727.358,743.724,2709.518,813.358,2694.494,846.56 M3103.448,860.349
	c0,3.221-0.04,6.146-0.107,8.837h-54.438c29.032-77.122,43.892-166.855,43.892-268.784c0-102.461-14.965-192.666-44.21-270.108
	h54.757c0.067,2.664,0.107,5.569,0.107,8.772V860.349z M3361.735,869.186c-0.077-2.691-0.117-5.616-0.117-8.837V734.77
	l55.269,134.416H3361.735z M3597.356,421.235l-37.322-90.94h37.225c0.057,2.664,0.097,5.569,0.097,8.772V421.235z M4288.108,871.126
	c-8.529,7.622-23.31,11.501-43.882,11.501c-35.844,0-64.279-13.364-89.501-42.011c-19.403-22.077-33.886-50.376-43.332-84.522
	c23.282,8.519,50.212,17.589,80.924,27.355c7.43,2.45,18.255,5.788,31.793,9.841c22.047,6.831,73.33,25.424,73.33,50.309
	C4297.439,862.799,4291.139,868.415,4288.108,871.126 M4266.023,394.198c-72.193-20.33-83.809-40.371-84.022-40.371
	c0-18.707,5.77-24.266,8.133-26.552c2.374-2.259,9.505-9.118,32.488-9.118c37.727,0,65.823,11.307,88.431,35.498
	c15.477,16.615,27.094,38.276,34.755,64.694C4325.4,411.623,4299.3,403.741,4266.023,394.198 M4546.936,542.191
	c-1.603-1.881-3.019-3.841-4.679-5.673h5.017C4547.138,538.389,4547.033,540.29,4546.936,542.191 M5062.39,846.599
	c-18.573,41.276-40.167,44.74-58.962,44.74c-19.01,0-40.843-3.464-59.505-44.76c-14.955-33.202-32.795-102.876-32.795-246.178
	c0-143.304,17.84-212.996,32.757-246.16c18.699-41.353,40.533-44.817,59.542-44.817c18.767,0,40.389,3.464,59.001,44.817
	c14.964,33.105,32.807,102.682,32.807,246.16C5095.236,743.868,5077.394,813.418,5062.39,846.599 M5471.391,860.349
	c0,3.221-0.04,6.146-0.117,8.837h-54.437c29.022-77.141,43.882-166.874,43.882-268.784c0-102.48-14.957-192.666-44.21-270.108
	h54.765c0.077,2.644,0.117,5.569,0.117,8.772V860.349z M5729.553,869.186c-0.079-2.691-0.116-5.616-0.116-8.837V734.654
	l55.345,134.532H5729.553z M5965.194,330.294c0.077,2.664,0.115,5.569,0.115,8.772v82.169l-37.34-90.94H5965.194z"/>
<path d="M10333.154,1388.789c-4.4,0-5.75-0.848-8.009-2.932c-3.126-2.932-14.724-15.496-32.824-55.152l-295.309-640.724
	l163.738-191.662l1.332-0.869l6.213-7.092c87.554-99.835,121.729-104.419,122.637-104.534h126.86V40.254H8942.56v15.409h-127.769
	l-6.947,24.681c-8.586-4.766-17.251-9.09-26.013-12.967c-41.952-18.488-87.127-27.857-134.271-27.857
	c-64.299,0-122.751,13.277-173.658,39.464c-50.249,25.78-96.236,65.803-136.915,119.21c-34.755,46.121-61.539,97.953-80.837,153.858
	c-19.549-58.646-46.469-110.758-81.609-155.2c-82.593-104.399-196.602-157.332-338.863-157.332
	c-142.936,0-257.293,53.077-339.926,157.747c-78.501,99.479-118.312,235.11-118.312,403.134c0,47.269,3.531,91.691,9.843,133.74
	h-42.223c-2.992-57.853-15.804-103.587-38.905-139.192c-3.377-5.239-7.005-10.256-10.864-15.062
	c11.463-10.392,21.922-21.768,31.358-34.146c36.608-48.109,55.152-107.932,55.152-177.798c0-97.762-28.367-173.522-84.251-225.135
	c-54.284-50.249-133.578-75.723-235.624-75.723h-523.887v263.207h100.617c0.057,2.674,0.097,5.596,0.097,8.772v521.31
	c0,3.203-0.04,6.128-0.117,8.79h-100.597v263.18h536.374v-45.773c30.605,36.144,84.079,73.369,174.565,73.369
	c100.132,0,153.684-50.676,180.989-93.227c17.812-27.787,30.665-61.695,38.942-101.967c8.414,13.121,17.35,25.79,26.902,37.842
	c82.611,104.399,196.95,157.332,339.866,157.332c142.589,0,256.674-52.816,339.114-157.014
	c34.812-44.007,61.54-95.541,81.011-153.52c18.603,55.587,43.785,105.605,76.304,149.034
	c80.238,107.158,189.229,161.499,323.965,161.499c121.245,0,215.918-41.701,281.452-124.016
	c61.116-77.025,93.614-188.236,96.584-330.593l1.506-72.598h-249.265l-3.223,67.753c-3.049,64.068-15.573,113.131-37.168,145.794
	c-19.606,29.582-38.634,33.654-56.29,33.654c-13.22,0-40.719,0-67-52.46c-25.436-50.666-38.346-127.952-38.346-229.737
	c0-99.892,13.066-176.484,38.925-227.826c26.532-53.057,52.836-53.057,65.475-53.057c18.72,0,40.796,4.371,62.621,36.559
	c23.021,34.049,36.396,85.565,39.772,153.125l3.357,67.579h239.635V385.824h43.651c14.338,0,24.122,0.887,30.548,1.861
	c1.776,10.546,3.765,29.497,3.765,61.434v876.355c0,32.131-2.065,51.024-3.899,61.406c-6.291,0.984-16.035,1.909-30.413,1.909
	H8942.56v345.56h1511.475v-345.56H10333.154z M6974.2,869.166c-0.077-2.662-0.117-5.586-0.117-8.79V711.16h13.103
	c8.819,0,15.168,0.559,19.549,1.186c1.678,8.876,3.588,24.922,3.588,51.968v87.976c0,5.713,0.058,11.349,0.174,16.876H6974.2z
	 M7032.324,440.503c-4.13,1.919-19.298,7.468-56.638,7.468h-1.603V330.294h9.592c35.623,0,45.851,7.527,45.87,7.527
	c0.115,0.144,9.319,12.254,9.319,56.357C7038.865,424.535,7034.042,437,7032.324,440.503 M7894.688,846.58
	c-18.603,41.306-40.215,44.76-59.011,44.76c-19.027,0-40.873-3.454-59.513-44.799c-14.937-33.115-32.767-102.692-32.767-246.138
	c0-143.458,17.83-213.055,32.767-246.197c18.64-41.315,40.505-44.78,59.513-44.78c18.796,0,40.389,3.464,59.031,44.78
	c14.975,33.22,32.844,102.874,32.844,246.197C7927.552,743.704,7909.683,813.348,7894.688,846.58 M8496.095,306.086
	c-36.376,72.191-54.033,167.59-54.033,291.633c0,125.917,17.483,221.951,53.435,293.506
	c41.238,82.38,98.187,115.224,148.899,126.205c-83.095-2.885-148.09-37.091-198.398-104.294
	c-56.657-75.683-85.392-181.347-85.392-314.055c0-67.127,7.682-127.596,22.792-179.659c14.569-50.097,37.187-95.726,67.021-135.325
	c27.479-36.105,57.254-62.523,88.518-78.568c26.957-13.876,58.509-21.721,93.958-23.399
	C8585.693,195.511,8534.4,229.456,8496.095,306.086 M9686.979,1388.789h-79.755c-15.362,0-25.493-1.041-31.843-2.122
	c-1.871-10.092-4.07-28.811-4.07-61.193v-142.646l93.244-106.589l140.737,312.549H9686.979z M9571.311,666.602V449.119
	c0-32.372,2.199-51.081,4.053-61.163c6.367-1.081,16.498-2.132,31.86-2.132h206.405L9571.311,666.602z"/>
<rect x="1382.808" y="1149.984" width="7480.71" height="473.675"/>
<path fill="#EDA307" d="M71.15,1623.659V1420.4h64.078c44.944,0,73.774-7.507,86.376-22.618
	c12.669-15.052,19.008-52.334,19.008-111.79V409.608c0-60.296-6.339-97.742-19.008-112.418
	c-12.601-14.666-41.432-22.057-86.376-22.057H71.15V71.873h676.975c151.214,0,262.069,29.35,332.63,88.093
	c70.504,58.732,105.759,150.973,105.759,276.716c0,85.836-20.511,160.015-61.529,222.5
	c-41.027,62.465-100.607,110.323-178.742,143.419c101.196,29.35,176.387,76.438,225.528,141.152
	c49.21,64.781,73.834,149.477,73.834,254.147c0,152.083-39.561,261.055-118.487,326.937
	c-78.965,65.919-211.78,98.823-398.415,98.823H71.15z M565.242,716.747h77.499c77.025,0,133.094-18.083,168.206-54.207
	c35.111-36.097,52.702-93.719,52.702-172.761c0-75.288-16.741-129.91-50.154-163.815c-33.453-33.838-88.132-50.83-163.989-50.83
	h-84.263V716.747z M565.242,1420.4h91.017c85.998,0,148.58-19.934,188.004-59.861c39.357-39.889,59.021-103.146,59.021-189.773
	c0-90.312-19.664-155.874-59.021-196.486c-39.424-40.679-102.595-60.999-189.704-60.999h-89.318V1420.4z"/>
<path fill="#EDA307" d="M1623.776,820.855c0,34.958,3.772,56.986,11.307,66.18c7.507,9.167,24.934,13.749,52.403,13.749h36.579
	v120.899h-394.151V900.785h38.142c26.736,0,43.843-4.486,51.38-13.439c7.505-8.926,11.279-31.099,11.279-66.49V299.555
	c0-35.826-3.774-58.076-11.279-66.838c-7.537-8.77-24.643-13.074-51.38-13.074h-38.142V98.706h452.834
	c83.886,0,146.333,18.911,187.291,56.792c40.93,37.804,61.396,95.485,61.396,172.925c0,54.197-13.518,99.074-40.584,134.706
	c-27.092,35.585-66.354,59.898-117.878,72.897c44.153,9.861,75.588,29.186,94.278,58.094
	c18.777,28.888,28.125,71.555,28.125,127.972v89.355c0,38.519,2.172,64.599,6.476,78.232c4.351,13.74,12.099,20.513,23.128,20.513
	c12.977,0,22.104-10.179,27.305-30.568c5.201-20.397,7.748-58.335,7.748-113.865h68.709c0,4.488,0.154,10.613,0.53,18.478
	c0.281,7.825,0.512,13.556,0.512,17.174c0,84.631-12.997,147.039-38.942,187.37c-25.849,40.351-66.257,60.507-121.071,60.507
	c-57.845,0-100.194-19.067-127.084-57.13c-26.997-38.094-40.408-97.839-40.408-179.391v-87.966
	c0-51.524-6.088-85.093-18.304-100.781c-12.234-15.65-37.523-23.515-75.936-23.515h-84.261V820.855z M1623.776,479.59h72.683
	c52.16,0,87.611-9.05,106.348-27.228c18.709-18.12,28.06-50.704,28.06-97.694c0-49.285-9.351-84.107-28.06-104.476
	c-18.737-20.377-51.474-30.548-98.271-30.548h-80.76V479.59z"/>
<path fill="#EDA307" d="M2169.402,560.881c0-152.277,34.301-271.949,103.01-359.068c68.69-87.109,163.381-130.683,284.078-130.683
	c120.01,0,214.385,43.438,283.055,130.345c68.708,86.887,103.067,206.694,103.067,359.406c0,152.275-34.263,271.726-102.799,358.362
	c-68.504,86.684-162.985,130.017-283.324,130.017c-120.698,0-215.388-43.428-284.078-130.315
	C2203.702,832.077,2169.402,712.704,2169.402,560.881 M2393.031,560.881c0,125.877,13.044,217.645,39.087,275.404
	c26.08,57.776,67.542,86.674,124.373,86.674c56.474,0,97.799-28.898,123.84-86.674c26.062-57.758,39.126-149.526,39.126-275.404
	s-13.064-217.667-39.126-275.443c-26.041-57.756-67.366-86.674-123.84-86.674c-56.832,0-98.293,28.918-124.373,86.674
	C2406.074,343.214,2393.031,435.004,2393.031,560.881"/>
<path fill="#EDA307" d="M3095.546,299.555c0-34.958-3.832-56.966-11.522-66.2c-7.659-9.147-25.116-13.712-52.12-13.712h-36.107
	V98.706h329.427l264.241,643.542V299.555c0-34.958-3.832-56.966-11.483-66.2c-7.708-9.147-25.096-13.712-52.19-13.712h-39.126
	V98.706h314.433v120.937h-32.091c-27.094,0-44.461,4.565-52.133,13.712c-7.699,9.234-11.578,31.242-11.578,66.2v722.149H3493.72
	l-282.274-686.537v485.65c0,35.014,3.812,57.053,11.521,66.218c7.641,9.167,24.989,13.759,52.123,13.759h39.126v120.909h-318.418
	V900.795h36.107c27.005,0,44.461-4.592,52.12-13.759c7.691-9.165,11.522-31.204,11.522-66.218V299.555z"/>
<path fill="#EDA307" d="M3942.538,1033.833h-83.267V671.068h92.3c8.355,73.824,31.888,132.892,70.705,177.017
	c38.808,44.104,86.433,66.16,142.907,66.16c38.788,0,69.202-9.88,91.249-29.564c22.077-19.703,33.105-46.594,33.105-80.605
	c0-53.338-41.122-92.734-123.407-118.245c-13.315-4.013-23.533-7.14-30.528-9.446c-71.893-22.829-121.585-41.616-149.198-56.397
	c-27.605-14.783-50.425-31.736-68.429-51.022c-23.081-24.209-40.505-53.079-52.421-86.696
	c-11.898-33.567-17.802-70.743-17.802-111.462c0-93.177,24.478-165.495,73.464-217.039c48.969-51.476,118.072-77.238,207.352-77.238
	c44.481,0,83.818,6.359,118.111,19.144c34.243,12.785,63.922,32.111,89.018,58.094l20.573-65.149h85.208v337.234h-94.278
	c-6.011-68.073-27.057-121.468-63.161-160.217c-36.154-38.731-82.931-58.134-140.456-58.134c-34.397,0-61.608,9.639-81.706,28.908
	c-20.041,19.267-30.056,45.252-30.056,77.892c0,47.078,45.271,83.336,135.874,108.847c34.446,9.88,61.675,18.16,81.706,24.857
	c78.926,25.963,136.664,63.179,173.261,111.549c36.617,48.378,54.921,111.509,54.921,189.403
	c0,91.847-25.618,164.821-76.928,219.007c-51.342,54.17-120.822,81.321-208.375,81.321c-42.116,0-83.093-7.554-122.895-22.531
	c-39.782-15.042-72.877-35.034-99.275-60.11L3942.538,1033.833z"/>
<path fill="#EDA307" d="M4537.277,560.881c0-152.277,34.302-271.949,103.03-359.068c68.708-87.109,163.38-130.683,284.078-130.683
	c120.05,0,214.385,43.438,283.035,130.345c68.777,86.887,103.127,206.694,103.127,359.406c0,152.275-34.312,271.726-102.759,358.362
	c-68.623,86.684-163.045,130.017-283.403,130.017c-120.698,0-215.371-43.428-284.078-130.315
	C4571.58,832.077,4537.277,712.704,4537.277,560.881 M4760.945,560.881c0,125.877,13.064,217.645,39.086,275.404
	c26.08,57.776,67.542,86.674,124.354,86.674c56.512,0,97.837-28.898,123.84-86.674c26.1-57.758,39.108-149.526,39.108-275.404
	s-13.009-217.667-39.108-275.443c-26.003-57.756-67.328-86.674-123.84-86.674c-56.812,0-98.273,28.918-124.354,86.674
	C4774.009,343.214,4760.945,435.004,4760.945,560.881"/>
<path fill="#EDA307" d="M5463.479,299.555c0-34.958-3.822-56.966-11.578-66.2c-7.604-9.147-25.011-13.712-52.123-13.712h-36.107
	V98.706h329.486l264.239,643.542V299.555c0-34.958-3.782-56.966-11.5-66.2c-7.701-9.147-25.048-13.712-52.123-13.712h-39.116V98.706
	h314.413v120.937h-32.129c-27.133,0-44.384,4.565-52.085,13.712c-7.719,9.234-11.54,31.242-11.54,66.2v722.149h-211.674
	l-282.379-686.537v485.65c0,35.014,3.879,57.053,11.578,66.218c7.661,9.167,25.049,13.759,52.143,13.759h39.136v120.909h-318.448
	V900.795h36.107c27.111,0,44.519-4.592,52.123-13.759c7.756-9.165,11.578-31.204,11.578-66.218V299.555z"/>
<path fill="#EDA307" d="M6823.911,820.855c0,34.958,3.782,56.986,11.29,66.18c7.487,9.167,25.068,13.749,52.431,13.749h36.608
	v120.899h-394.113V900.785h38.095c26.706,0,43.823-4.486,51.387-13.439c7.47-8.926,11.232-31.099,11.232-66.49V299.555
	c0-35.826-3.762-58.076-11.232-66.838c-7.564-8.77-24.681-13.074-51.387-13.074h-38.095V98.706h452.757
	c83.945,0,146.373,18.911,187.301,56.792c40.93,37.804,61.444,95.485,61.444,172.925c0,54.197-13.526,99.074-40.64,134.706
	c-27.074,35.585-66.364,59.898-117.87,72.897c44.133,9.861,75.57,29.186,94.308,58.094c18.737,28.888,28.135,71.555,28.135,127.972
	v89.355c0,38.519,2.124,64.599,6.466,78.232c4.361,13.74,12.06,20.513,23.078,20.513c12.949,0,22.116-10.179,27.384-30.568
	c5.171-20.397,7.776-58.335,7.776-113.865h68.662c0,4.488,0.134,10.613,0.482,18.478c0.328,7.825,0.52,13.556,0.52,17.174
	c0,84.631-13.007,147.039-38.883,187.37c-25.898,40.351-66.287,60.507-121.11,60.507c-57.835,0-100.232-19.067-127.171-57.13
	c-26.843-38.094-40.352-97.839-40.352-179.391v-87.966c0-51.524-6.135-85.093-18.235-100.781
	c-12.293-15.65-37.535-23.515-76.013-23.515h-84.253V820.855z M6823.911,479.59h72.733c52.123,0,87.628-9.05,106.251-27.228
	c18.757-18.12,28.06-50.704,28.06-97.694c0-49.285-9.303-84.107-28.06-104.476c-18.623-20.377-51.39-30.548-98.262-30.548h-80.722
	V479.59z"/>
<path fill="#EDA307" d="M7369.527,560.881c0-152.277,34.272-271.949,103.049-359.068c68.737-87.109,163.411-130.683,284.079-130.683
	c120.067,0,214.298,43.438,283.055,130.345c68.68,86.887,103.048,206.694,103.048,359.406c0,152.275-34.273,271.726-102.797,358.362
	c-68.583,86.684-162.968,130.017-283.306,130.017c-120.668,0-215.341-43.428-284.079-130.315
	C7403.799,832.077,7369.527,712.704,7369.527,560.881 M7593.225,560.881c0,125.877,12.987,217.645,39.077,275.404
	c26.033,57.776,67.542,86.674,124.354,86.674c56.464,0,97.819-28.898,123.85-86.674c26.072-57.758,39.156-149.526,39.156-275.404
	s-13.083-217.667-39.156-275.443c-26.031-57.756-67.386-86.674-123.85-86.674c-56.812,0-98.321,28.918-124.354,86.674
	C7606.211,343.214,7593.225,435.004,7593.225,560.881"/>
<path fill="#EDA307" d="M8775.136,664.324h108.798c-2.644,127.219-29.832,223.137-81.185,287.833
	c-51.561,64.771-126.725,97.104-225.721,97.104c-111.732,0-200.636-44.345-267.02-133.007
	c-66.403-88.692-99.575-207.623-99.575-356.705c0-74.353,8.588-140.871,25.607-199.517c17.06-58.673,43.323-111.549,78.734-158.557
	c34.079-44.762,71.593-77.683,112.582-98.726c40.968-21.063,88.033-31.619,141.159-31.619c37.438,0,72.637,7.313,105.598,21.816
	c32.921,14.609,64.49,37.089,94.961,67.56l20.573-73.233h94.285v376.165h-100.809c-4.053-81.058-21.323-144.171-51.892-189.403
	c-30.604-45.214-71.13-67.86-121.555-67.86c-55.249,0-98.302,30.809-129.101,92.377c-31.01,61.578-46.429,148.127-46.429,259.637
	c0,113.325,15.205,200.531,45.909,261.674c30.605,61.116,74.043,91.664,130.566,91.664c48.109,0,86.664-21.836,115.592-65.487
	C8755.085,802.369,8771.45,741.803,8775.136,664.324"/>
<path fill="#EDA307" d="M8934.647,1623.679v-203.261h64.067c45.003,0,73.871-7.564,86.436-22.596
	c12.639-15.091,19.008-52.336,19.008-111.869V409.608c0-60.266-6.369-97.752-19.008-112.418
	c-12.564-14.704-41.433-22.037-86.436-22.037h-64.067V71.883h634.039v203.269h-40.506c-45.504,0-74.701,7.709-87.668,23.167
	c-12.911,15.467-19.375,52.498-19.375,111.288v408.788l386.914-448.329c8.974-10.574,15.631-20.531,19.915-29.939
	c4.147-9.446,6.33-18.652,6.33-27.683c0-12.765-5.249-22.191-15.785-28.242c-10.287-6.041-26.438-9.05-48.36-9.05h-80.856V71.883
	h578.325v203.269h-55.73c-42.107,0-100.848,42.946-176.128,128.762l-1.697,1.148L9834.297,638.87l314.375,682.089
	c16.846,36.917,33.172,62.718,48.937,77.402c15.748,14.666,34.563,22.057,56.484,22.057h49.769v203.261h-624.795v-203.261h49.75
	c28.714,0,49.131-3.608,61.192-10.768c12.06-7.12,18.043-19.008,18.043-35.565c0-6.041-0.85-12.06-2.509-18.101
	c-1.697-6.001-5.326-15.439-10.962-28.194l-189.693-421.282l-183.75,210.073v169.372c0,58.723,6.464,95.813,19.375,111.29
	c12.967,15.457,42.164,23.175,87.668,23.175h40.506v203.261H8934.647z"/>
<g>
	<path fill="#EDA307" d="M1588.394,1275.775h51.827l45.545,148.884l49.314-149.513h41.461l49.314,149.513l45.545-148.884h50.57
		l-75.07,221.441h-42.09l-49.628-143.858l-49.628,143.858h-42.089L1588.394,1275.775z"/>
	<path fill="#EDA307" d="M2061.123,1386.339v-0.628c0-62.507,49.314-113.705,117.16-113.705s116.532,50.57,116.532,113.076v0.629
		c0,62.506-49.314,113.705-117.16,113.705C2109.809,1499.416,2061.123,1448.845,2061.123,1386.339z M2244.244,1386.339v-0.628
		c0-37.692-27.641-69.103-66.59-69.103s-65.961,30.782-65.961,68.474v0.629c0,37.692,27.641,69.103,66.59,69.103
		S2244.244,1424.031,2244.244,1386.339z"/>
	<path fill="#EDA307" d="M2453.751,1386.339v-0.628c0-62.507,49.314-113.705,117.16-113.705s116.532,50.57,116.532,113.076v0.629
		c0,62.506-49.314,113.705-117.16,113.705S2453.751,1448.845,2453.751,1386.339z M2636.873,1386.339v-0.628
		c0-37.692-27.641-69.103-66.59-69.103s-65.961,30.782-65.961,68.474v0.629c0,37.692,27.641,69.103,66.59,69.103
		S2636.873,1424.031,2636.873,1386.339z"/>
	<path fill="#EDA307" d="M2856.117,1275.775h85.75c69.103,0,116.846,47.429,116.846,109.307v0.629
		c0,61.878-47.744,109.936-116.846,109.936h-85.75V1275.775z M2904.489,1319.435v132.551h37.378
		c39.577,0,66.276-26.699,66.276-65.647v-0.628c0-38.949-26.699-66.275-66.276-66.275H2904.489z"/>
	<path fill="#EDA307" d="M3216.709,1375.345h96.744v45.858h-96.744V1375.345z"/>
	<path fill="#EDA307" d="M3481.183,1275.775h167.417v43.974h-119.045v46.802h104.91v43.974h-104.91v85.122h-48.372V1275.775z"/>
	<path fill="#EDA307" d="M3815.074,1275.775h48.372v219.871h-48.372V1275.775z"/>
	<path fill="#EDA307" d="M4044.056,1275.775h100.513c27.955,0,49.628,7.853,64.077,22.301c12.25,12.25,18.846,29.525,18.846,50.257
		v0.628c0,35.493-19.16,57.795-47.115,68.16l53.711,78.525h-56.539l-47.115-70.359h-38.006v70.359h-48.372V1275.775z
		 M4141.427,1382.569c23.558,0,37.064-12.563,37.064-31.096v-0.628c0-20.731-14.449-31.41-38.006-31.41h-48.058v63.134H4141.427z"/>
	<path fill="#EDA307" d="M4396.793,1275.775h165.846v43.031h-117.788v44.603h103.653v43.032h-103.653v46.173h119.359v43.032
		h-167.417V1275.775z"/>
	<path fill="#EDA307" d="M4732.886,1275.775h85.75c69.103,0,116.846,47.429,116.846,109.307v0.629
		c0,61.878-47.744,109.936-116.846,109.936h-85.75V1275.775z M4781.257,1319.435v132.551h37.378
		c39.577,0,66.276-26.699,66.276-65.647v-0.628c0-38.949-26.699-66.275-66.276-66.275H4781.257z"/>
	<path fill="#EDA307" d="M5314.29,1386.339v-0.628c0-62.507,48.686-113.705,115.275-113.705c39.577,0,63.448,10.68,86.378,30.153
		l-30.468,36.75c-16.961-14.134-32.038-22.301-57.48-22.301c-35.18,0-63.135,31.096-63.135,68.474v0.629
		c0,40.205,27.641,69.73,66.59,69.73c17.59,0,33.295-4.397,45.545-13.192v-31.41h-48.686v-41.775h95.486v95.487
		c-22.615,19.16-53.711,34.865-93.916,34.865C5361.405,1499.416,5314.29,1451.358,5314.29,1386.339z"/>
	<path fill="#EDA307" d="M5695.927,1275.775h100.513c27.955,0,49.628,7.853,64.077,22.301c12.249,12.25,18.846,29.525,18.846,50.257
		v0.628c0,35.493-19.16,57.795-47.115,68.16l53.711,78.525h-56.538l-47.115-70.359h-38.007v70.359h-48.371V1275.775z
		 M5793.298,1382.569c23.558,0,37.064-12.563,37.064-31.096v-0.628c0-20.731-14.448-31.41-38.007-31.41h-48.058v63.134H5793.298z"/>
	<path fill="#EDA307" d="M6050.863,1275.775h48.372v219.871h-48.372V1275.775z"/>
	<path fill="#EDA307" d="M6279.846,1275.775h48.371v175.896h109.622v43.975h-157.993V1275.775z"/>
	<path fill="#EDA307" d="M6599.915,1275.775h48.371v175.896h109.622v43.975h-157.993V1275.775z"/>
	<path fill="#EDA307" d="M7262.354,1474.287c-17.904,14.764-38.949,24.5-64.392,24.5c-42.09,0-73.813-24.5-73.813-63.448v-0.628
		c0-27.955,15.077-47.744,42.718-60.308c-10.68-15.077-15.391-28.897-15.391-43.975v-0.628c0-30.154,24.186-57.795,66.589-57.795
		c37.379,0,61.879,24.5,61.879,55.282v0.628c0,29.525-18.847,46.801-46.174,57.48l29.212,29.212
		c7.225-11.308,14.448-24.187,21.358-37.692l35.494,19.475c-8.48,15.391-17.904,31.724-28.897,46.486l32.353,32.353l-35.493,24.814
		L7262.354,1474.287z M7235.342,1446.646l-42.09-42.718c-14.449,7.538-20.417,18.218-20.417,28.897v0.628
		c0,15.392,12.878,25.757,30.782,25.757C7214.61,1459.211,7225.29,1454.499,7235.342,1446.646z M7237.854,1330.743v-0.629
		c0-12.563-8.481-20.416-20.731-20.416c-12.878,0-21.358,9.108-21.358,22.301v0.629c0,9.736,3.77,16.961,12.878,27.326
		C7227.803,1352.73,7237.854,1344.563,7237.854,1330.743z"/>
	<path fill="#EDA307" d="M7703.983,1275.775h102.083c25.128,0,44.917,6.91,57.48,19.474c10.052,10.052,15.077,22.302,15.077,37.379
		v0.628c0,24.813-13.192,38.635-28.897,47.43c25.442,9.736,41.147,24.5,41.147,54.025v0.628c0,40.205-32.667,60.308-82.295,60.308
		h-104.596V1275.775z M7830.566,1340.794c0-14.448-11.308-22.615-31.725-22.615h-47.743v46.487h44.603
		c21.358,0,34.865-6.91,34.865-23.244V1340.794z M7807.009,1404.871h-55.91v48.372h57.48c21.359,0,34.237-7.539,34.237-23.872
		v-0.628C7842.816,1413.979,7831.823,1404.871,7807.009,1404.871z"/>
	<path fill="#EDA307" d="M8131.79,1274.204h44.603l94.23,221.442h-50.57l-20.103-49.314h-92.975l-20.103,49.314h-49.314
		L8131.79,1274.204z M8182.674,1403.614l-29.211-71.301l-29.212,71.301H8182.674z"/>
	<path fill="#EDA307" d="M8430.188,1275.775h100.513c27.955,0,49.628,7.853,64.077,22.301c12.249,12.25,18.846,29.525,18.846,50.257
		v0.628c0,35.493-19.16,57.795-47.115,68.16l53.711,78.525h-56.538l-47.115-70.359h-38.007v70.359h-48.371V1275.775z
		 M8527.56,1382.569c23.558,0,37.064-12.563,37.064-31.096v-0.628c0-20.731-14.448-31.41-38.007-31.41h-48.058v63.134H8527.56z"/>
</g>
</svg>
